<svg width="230.6" height="74.3" viewBox="0 0 230.6 74.3" xmlns="http://www.w3.org/2000/svg"><g id="svgGroup" stroke-linecap="round" fill-rule="evenodd" font-size="9pt" stroke="#00ccff" stroke-width="0.50mm" fill="#ffffff" style="stroke:#00ccff;stroke-width:0.50mm;fill:#ffffff"><path d="M 15 18.5 L 0 18.5 L 0 4.3 L 34 4.3 L 58 25.8 L 81 4.3 L 113.5 4.3 L 76 39.3 L 99 60.1 L 114 60.1 L 114 74.3 L 80 74.3 L 56 52.8 L 33 74.3 L 0.5 74.3 L 38 39.3 L 15 18.5 Z M 189.1 64.9 L 118 64.9 L 118 50.6 L 215.2 0 L 215.2 50.7 L 230.6 50.7 L 230.6 64.9 L 215.2 64.9 L 215.2 74.3 L 189.1 74.3 L 189.1 64.9 Z M 189.1 31.1 L 151.6 50.7 L 189.1 50.7 L 189.1 31.1 Z" vector-effect="non-scaling-stroke"/></g></svg>